ffmpeg started on 2016-12-12 at 06:10:01
Report written to "Output/theora/results/ffmpeg/crowd_run_2160p506000k.log"
Command line:
Tools/ffmpeg/ffmpeg -benchmark -y -i Input/y4m/crowd_run_2160p50.y4m -c:v libtheora -b:v 6000k -an Output/theora/encoded/crowd_run_2160p506000k.mkv
ffmpeg version N-82227-gdb23fde Copyright (c) 2000-2016 the FFmpeg developers
  built with gcc 5.4.0 (Ubuntu 5.4.0-6ubuntu1~16.04.2) 20160609
  configuration: --prefix=/home/jaroslav/ffmpeg_build --pkg-config-flags=--static --extra-cflags=-I/home/jaroslav/ffmpeg_build/include --extra-ldflags=-L/home/jaroslav/ffmpeg_build/lib --bindir=/home/jaroslav/bin --enable-gpl --enable-libass --enable-libfdk-aac --enable-libfreetype --enable-libmp3lame --enable-libopus --enable-libtheora --enable-libvorbis --enable-libvpx --enable-libx264 --enable-libx265 --enable-nvenc --enable-libmfx --enable-libxvid --enable-libgsm --enable-libopencore-amrnb --enable-version3 --enable-nonfree
  libavutil      55. 35.100 / 55. 35.100
  libavcodec     57. 66.101 / 57. 66.101
  libavformat    57. 57.100 / 57. 57.100
  libavdevice    57.  2.100 / 57.  2.100
  libavfilter     6. 66.100 /  6. 66.100
  libswscale      4.  3.100 /  4.  3.100
  libswresample   2.  4.100 /  2.  4.100
  libpostproc    54.  2.100 / 54.  2.100
Input #0, yuv4mpegpipe, from 'Input/y4m/crowd_run_2160p50.y4m':
  Duration: 00:00:10.00, start: 0.000000, bitrate: 4976642 kb/s
    Stream #0:0: Video: rawvideo (I420 / 0x30323449), yuv420p(progressive), 3840x2160, SAR 1:1 DAR 16:9, 50 fps, 50 tbr, 50 tbn, 50 tbc
Output #0, matroska, to 'Output/theora/encoded/crowd_run_2160p506000k.mkv':
  Metadata:
    encoder         : Lavf57.57.100
    Stream #0:0: Video: theora (libtheora) (theo / 0x6F656874), yuv420p, 3840x2160 [SAR 1:1 DAR 16:9], q=2-31, 6000 kb/s, 50 fps, 1k tbn, 50 tbc
    Metadata:
      encoder         : Lavc57.66.101 libtheora
Stream mapping:
  Stream #0:0 -> #0:0 (rawvideo (native) -> theora (libtheora))
Press [q] to stop, [?] for help
frame=    3 fps=0.6 q=-0.0 size=       4kB time=00:00:00.04 bitrate= 779.5kbits/s speed=0.00883x    frame=    5 fps=0.9 q=-0.0 size=       4kB time=00:00:00.08 bitrate= 394.6kbits/s speed=0.0152x    frame=    7 fps=1.2 q=-0.0 size=       4kB time=00:00:00.12 bitrate= 264.1kbits/s speed=0.0201x    frame=    9 fps=1.3 q=-0.0 size=       4kB time=00:00:00.16 bitrate= 198.5kbits/s speed=0.024x    frame=   11 fps=1.5 q=-0.0 size=       4kB time=00:00:00.20 bitrate= 159.0kbits/s speed=0.0272x    frame=   13 fps=1.6 q=-0.0 size=     499kB time=00:00:00.24 bitrate=16956.0kbits/s speed=0.0298x    frame=   15 fps=1.7 q=-0.0 size=     499kB time=00:00:00.28 bitrate=14542.3kbits/s speed=0.0326x    frame=   17 fps=1.8 q=-0.0 size=     499kB time=00:00:00.32 bitrate=12730.2kbits/s speed=0.0346x    frame=   18 fps=1.8 q=-0.0 size=     499kB time=00:00:00.34 bitrate=11983.6kbits/s speed=0.0332x    frame=   19 fps=1.7 q=-0.0 size=     499kB time=00:00:00.36 bitrate=11319.7kbits/s speed=0.033x    frame=   21 fps=1.8 q=-0.0 size=     499kB time=00:00:00.40 bitrate=10190.5kbits/s speed=0.0344x    frame=   23 fps=1.9 q=-0.0 size=     499kB time=00:00:00.44 bitrate=9266.2kbits/s speed=0.0358x    frame=   25 fps=1.9 q=-0.0 size=    1009kB time=00:00:00.48 bitrate=17181.0kbits/s speed=0.0369x    frame=   27 fps=2.0 q=-0.0 size=    1009kB time=00:00:00.52 bitrate=15862.0kbits/s speed=0.0385x    frame=   29 fps=2.0 q=-0.0 size=    1009kB time=00:00:00.56 bitrate=14731.0kbits/s speed=0.0394x    frame=   31 fps=2.1 q=-0.0 size=    1009kB time=00:00:00.60 bitrate=13750.5kbits/s speed=0.0403x    frame=   33 fps=2.1 q=-0.0 size=    1009kB time=00:00:00.64 bitrate=12892.5kbits/s speed=0.041x    frame=   35 fps=2.1 q=-0.0 size=    1009kB time=00:00:00.68 bitrate=12135.2kbits/s speed=0.0417x    frame=   37 fps=2.2 q=-0.0 size=    1209kB time=00:00:00.72 bitrate=13737.4kbits/s speed=0.0424x    frame=   39 fps=2.2 q=-0.0 size=    1209kB time=00:00:00.76 bitrate=13015.3kbits/s speed=0.0434x    frame=   41 fps=2.3 q=-0.0 size=    1209kB time=00:00:00.80 bitrate=12365.4kbits/s speed=0.044x    frame=   43 fps=2.3 q=-0.0 size=    1209kB time=00:00:00.84 bitrate=11777.3kbits/s speed=0.0445x    frame=   45 fps=2.3 q=-0.0 size=    1209kB time=00:00:00.88 bitrate=11242.5kbits/s speed=0.045x    frame=   47 fps=2.3 q=-0.0 size=    1209kB time=00:00:00.92 bitrate=10754.3kbits/s speed=0.0454x    frame=   49 fps=2.3 q=-0.0 size=    1335kB time=00:00:00.96 bitrate=11377.9kbits/s speed=0.0457x    frame=   51 fps=2.4 q=-0.0 size=    1335kB time=00:00:01.00 bitrate=10923.2kbits/s speed=0.0465x    frame=   53 fps=2.4 q=-0.0 size=    1335kB time=00:00:01.04 bitrate=10503.5kbits/s speed=0.0469x    frame=   55 fps=2.4 q=-0.0 size=    1335kB time=00:00:01.08 bitrate=10114.9kbits/s speed=0.0472x    frame=   57 fps=2.4 q=-0.0 size=    1335kB time=00:00:01.12 bitrate=9753.9kbits/s speed=0.0475x    frame=   59 fps=2.4 q=-0.0 size=    1335kB time=00:00:01.16 bitrate=9417.9kbits/s speed=0.0478x    frame=   61 fps=2.4 q=-0.0 size=    1538kB time=00:00:01.20 bitrate=10493.7kbits/s speed=0.0481x    frame=   63 fps=2.5 q=-0.0 size=    1538kB time=00:00:01.24 bitrate=10155.5kbits/s speed=0.0487x    frame=   65 fps=2.5 q=-0.0 size=    1538kB time=00:00:01.28 bitrate=9838.4kbits/s speed=0.0489x    frame=   67 fps=2.5 q=-0.0 size=    1538kB time=00:00:01.32 bitrate=9540.5kbits/s speed=0.0491x    frame=   69 fps=2.5 q=-0.0 size=    1538kB time=00:00:01.36 bitrate=9260.1kbits/s speed=0.0493x    frame=   71 fps=2.5 q=-0.0 size=    1538kB time=00:00:01.40 bitrate=8995.7kbits/s speed=0.0495x    frame=   73 fps=2.5 q=-0.0 size=    1743kB time=00:00:01.44 bitrate=9907.1kbits/s speed=0.0497x    frame=   75 fps=2.5 q=-0.0 size=    1743kB time=00:00:01.48 bitrate=9639.5kbits/s speed=0.0502x    frame=   77 fps=2.6 q=-0.0 size=    1743kB time=00:00:01.52 bitrate=9386.0kbits/s speed=0.0504x    frame=   79 fps=2.6 q=-0.0 size=    1743kB time=00:00:01.56 bitrate=9145.5kbits/s speed=0.0506x    frame=   81 fps=2.6 q=-0.0 size=    1743kB time=00:00:01.60 bitrate=8917.0kbits/s speed=0.0507x    frame=   83 fps=2.6 q=-0.0 size=    1743kB time=00:00:01.64 bitrate=8699.7kbits/s speed=0.0508x    frame=   85 fps=2.6 q=-0.0 size=    1867kB time=00:00:01.68 bitrate=9097.6kbits/s speed=0.0509x    frame=   87 fps=2.6 q=-0.0 size=    1867kB time=00:00:01.72 bitrate=8886.2kbits/s speed=0.0514x    frame=   89 fps=2.6 q=-0.0 size=    1867kB time=00:00:01.76 bitrate=8684.4kbits/s speed=0.0515x    frame=   91 fps=2.6 q=-0.0 size=    1867kB time=00:00:01.80 bitrate=8491.5kbits/s speed=0.0516x    frame=   93 fps=2.6 q=-0.0 size=    1867kB time=00:00:01.84 bitrate=8307.0kbits/s speed=0.0517x    frame=   95 fps=2.6 q=-0.0 size=    1867kB time=00:00:01.88 bitrate=8130.3kbits/s speed=0.0518x    frame=   97 fps=2.6 q=-0.0 size=    2061kB time=00:00:01.92 bitrate=8791.0kbits/s speed=0.052x    frame=   99 fps=2.6 q=-0.0 size=    2061kB time=00:00:01.96 bitrate=8611.6kbits/s speed=0.0523x    frame=  101 fps=2.6 q=-0.0 size=    2061kB time=00:00:02.00 bitrate=8439.5kbits/s speed=0.0524x    frame=  103 fps=2.7 q=-0.0 size=    2061kB time=00:00:02.04 bitrate=8274.1kbits/s speed=0.0525x    frame=  105 fps=2.7 q=-0.0 size=    2061kB time=00:00:02.08 bitrate=8115.0kbits/s speed=0.0526x    frame=  107 fps=2.7 q=-0.0 size=    2061kB time=00:00:02.12 bitrate=7962.0kbits/s speed=0.0527x    frame=  109 fps=2.7 q=-0.0 size=    2254kB time=00:00:02.16 bitrate=8542.9kbits/s speed=0.0528x    frame=  111 fps=2.7 q=-0.0 size=    2254kB time=00:00:02.20 bitrate=8387.6kbits/s speed=0.0531x    frame=  113 fps=2.7 q=-0.0 size=    2254kB time=00:00:02.24 bitrate=8237.9kbits/s speed=0.0532x    frame=  115 fps=2.7 q=-0.0 size=    2254kB time=00:00:02.28 bitrate=8093.4kbits/s speed=0.0533x    frame=  117 fps=2.7 q=-0.0 size=    2254kB time=00:00:02.32 bitrate=7953.9kbits/s speed=0.0534x    frame=  119 fps=2.7 q=-0.0 size=    2254kB time=00:00:02.36 bitrate=7819.2kbits/s speed=0.0534x    frame=  121 fps=2.7 q=-0.0 size=    2448kB time=00:00:02.40 bitrate=8353.1kbits/s speed=0.0535x    frame=  123 fps=2.7 q=-0.0 size=    2448kB time=00:00:02.44 bitrate=8216.2kbits/s speed=0.0538x    frame=  125 fps=2.7 q=-0.0 size=    2448kB time=00:00:02.48 bitrate=8083.8kbits/s speed=0.0538x    frame=  127 fps=2.7 q=-0.0 size=    2448kB time=00:00:02.52 bitrate=7955.5kbits/s speed=0.0539x    frame=  129 fps=2.7 q=-0.0 size=    2448kB time=00:00:02.56 bitrate=7831.2kbits/s speed=0.054x    frame=  131 fps=2.7 q=-0.0 size=    2448kB time=00:00:02.60 bitrate=7710.8kbits/s speed=0.054x    frame=  133 fps=2.7 q=-0.0 size=    2573kB time=00:00:02.64 bitrate=7981.1kbits/s speed=0.0541x    frame=  135 fps=2.7 q=-0.0 size=    2573kB time=00:00:02.68 bitrate=7862.0kbits/s speed=0.0543x    frame=  137 fps=2.7 q=-0.0 size=    2573kB time=00:00:02.72 bitrate=7746.4kbits/s speed=0.0544x    frame=  139 fps=2.7 q=-0.0 size=    2573kB time=00:00:02.76 bitrate=7634.2kbits/s speed=0.0544x    frame=  141 fps=2.7 q=-0.0 size=    2573kB time=00:00:02.80 bitrate=7525.2kbits/s speed=0.0545x    frame=  143 fps=2.7 q=-0.0 size=    2573kB time=00:00:02.84 bitrate=7419.2kbits/s speed=0.0545x    frame=  145 fps=2.7 q=-0.0 size=    2763kB time=00:00:02.88 bitrate=7856.1kbits/s speed=0.0545x    frame=  147 fps=2.8 q=-0.0 size=    2763kB time=00:00:02.92 bitrate=7748.5kbits/s speed=0.0548x    frame=  149 fps=2.8 q=-0.0 size=    2763kB time=00:00:02.96 bitrate=7643.8kbits/s speed=0.0548x    frame=  151 fps=2.8 q=-0.0 size=    2763kB time=00:00:03.00 bitrate=7541.9kbits/s speed=0.0549x    frame=  153 fps=2.8 q=-0.0 size=    2763kB time=00:00:03.04 bitrate=7442.7kbits/s speed=0.0549x    frame=  155 fps=2.8 q=-0.0 size=    2763kB time=00:00:03.08 bitrate=7346.1kbits/s speed=0.0549x    frame=  157 fps=2.8 q=-0.0 size=    2956kB time=00:00:03.12 bitrate=7758.5kbits/s speed=0.055x    frame=  159 fps=2.8 q=-0.0 size=    2956kB time=00:00:03.16 bitrate=7660.3kbits/s speed=0.0552x    frame=  161 fps=2.8 q=-0.0 size=    2956kB time=00:00:03.20 bitrate=7564.6kbits/s speed=0.0552x    frame=  163 fps=2.8 q=-0.0 size=    2956kB time=00:00:03.24 bitrate=7471.2kbits/s speed=0.0552x    frame=  165 fps=2.8 q=-0.0 size=    2956kB time=00:00:03.28 bitrate=7380.1kbits/s speed=0.0552x    frame=  167 fps=2.8 q=-0.0 size=    2956kB time=00:00:03.32 bitrate=7291.3kbits/s speed=0.0552x    frame=  169 fps=2.8 q=-0.0 size=    3158kB time=00:00:03.36 bitrate=7696.1kbits/s speed=0.0552x    frame=  171 fps=2.8 q=-0.0 size=    3158kB time=00:00:03.40 bitrate=7605.6kbits/s speed=0.0554x    frame=  173 fps=2.8 q=-0.0 size=    3158kB time=00:00:03.44 bitrate=7517.1kbits/s speed=0.0554x    frame=  175 fps=2.8 q=-0.0 size=    3158kB time=00:00:03.48 bitrate=7430.8kbits/s speed=0.0555x    frame=  177 fps=2.8 q=-0.0 size=    3158kB time=00:00:03.52 bitrate=7346.3kbits/s speed=0.0555x    frame=  179 fps=2.8 q=-0.0 size=    3158kB time=00:00:03.56 bitrate=7263.8kbits/s speed=0.0555x    frame=  181 fps=2.8 q=-0.0 size=    3282kB time=00:00:03.60 bitrate=7465.4kbits/s speed=0.0555x    frame=  183 fps=2.8 q=-0.0 size=    3282kB time=00:00:03.64 bitrate=7383.4kbits/s speed=0.0557x    frame=  185 fps=2.8 q=-0.0 size=    3282kB time=00:00:03.68 bitrate=7303.2kbits/s speed=0.0557x    frame=  187 fps=2.8 q=-0.0 size=    3282kB time=00:00:03.72 bitrate=7224.7kbits/s speed=0.0557x    frame=  189 fps=2.8 q=-0.0 size=    3282kB time=00:00:03.76 bitrate=7147.8kbits/s speed=0.0557x    frame=  191 fps=2.8 q=-0.0 size=    3282kB time=00:00:03.80 bitrate=7072.6kbits/s speed=0.0557x    frame=  193 fps=2.8 q=-0.0 size=    3477kB time=00:00:03.84 bitrate=7414.7kbits/s speed=0.0558x    frame=  195 fps=2.8 q=-0.0 size=    3477kB time=00:00:03.88 bitrate=7338.3kbits/s speed=0.0559x    frame=  197 fps=2.8 q=-0.0 size=    3477kB time=00:00:03.92 bitrate=7263.4kbits/s speed=0.056x    frame=  199 fps=2.8 q=-0.0 size=    3477kB time=00:00:03.96 bitrate=7190.1kbits/s speed=0.056x    frame=  201 fps=2.8 q=-0.0 size=    3477kB time=00:00:04.00 bitrate=7118.2kbits/s speed=0.056x    frame=  203 fps=2.8 q=-0.0 size=    3477kB time=00:00:04.04 bitrate=7047.7kbits/s speed=0.056x    frame=  205 fps=2.8 q=-0.0 size=    3677kB time=00:00:04.08 bitrate=7380.7kbits/s speed=0.0557x    frame=  206 fps=2.8 q=-0.0 size=    3677kB time=00:00:04.10 bitrate=7344.7kbits/s speed=0.0556x    frame=  208 fps=2.8 q=-0.0 size=    3677kB time=00:00:04.14 bitrate=7273.7kbits/s speed=0.0556x    frame=  210 fps=2.8 q=-0.0 size=    3677kB time=00:00:04.18 bitrate=7204.2kbits/s speed=0.0556x    frame=  212 fps=2.8 q=-0.0 size=    3677kB time=00:00:04.22 bitrate=7135.9kbits/s speed=0.0556x    frame=  214 fps=2.8 q=-0.0 size=    3677kB time=00:00:04.26 bitrate=7068.9kbits/s speed=0.0556x    frame=  216 fps=2.8 q=-0.0 size=    3677kB time=00:00:04.30 bitrate=7003.2kbits/s speed=0.0556x    frame=  218 fps=2.8 q=-0.0 size=    3804kB time=00:00:04.34 bitrate=7178.4kbits/s speed=0.0558x    frame=  220 fps=2.8 q=-0.0 size=    3804kB time=00:00:04.38 bitrate=7112.9kbits/s speed=0.0558x    frame=  222 fps=2.8 q=-0.0 size=    3804kB time=00:00:04.42 bitrate=7048.5kbits/s speed=0.0558x    frame=  224 fps=2.8 q=-0.0 size=    3804kB time=00:00:04.46 bitrate=6985.3kbits/s speed=0.0558x    frame=  226 fps=2.8 q=-0.0 size=    3804kB time=00:00:04.50 bitrate=6923.2kbits/s speed=0.0558x    frame=  228 fps=2.8 q=-0.0 size=    3804kB time=00:00:04.54 bitrate=6862.2kbits/s speed=0.0559x    frame=  230 fps=2.8 q=-0.0 size=    4007kB time=00:00:04.58 bitrate=7164.9kbits/s speed=0.056x    frame=  232 fps=2.8 q=-0.0 size=    4007kB time=00:00:04.62 bitrate=7102.9kbits/s speed=0.056x    frame=  234 fps=2.8 q=-0.0 size=    4007kB time=00:00:04.66 bitrate=7042.0kbits/s speed=0.056x    frame=  236 fps=2.8 q=-0.0 size=    4007kB time=00:00:04.70 bitrate=6982.0kbits/s speed=0.056x    frame=  238 fps=2.8 q=-0.0 size=    4007kB time=00:00:04.74 bitrate=6923.1kbits/s speed=0.056x    frame=  240 fps=2.8 q=-0.0 size=    4007kB time=00:00:04.78 bitrate=6865.2kbits/s speed=0.056x    frame=  242 fps=2.8 q=-0.0 size=    4220kB time=00:00:04.82 bitrate=7170.2kbits/s speed=0.0561x    frame=  244 fps=2.8 q=-0.0 size=    4220kB time=00:00:04.86 bitrate=7111.2kbits/s speed=0.0562x    frame=  246 fps=2.8 q=-0.0 size=    4220kB time=00:00:04.90 bitrate=7053.1kbits/s speed=0.0562x    frame=  248 fps=2.8 q=-0.0 size=    4220kB time=00:00:04.94 bitrate=6996.0kbits/s speed=0.0562x    frame=  250 fps=2.8 q=-0.0 size=    4220kB time=00:00:04.98 bitrate=6939.8kbits/s speed=0.056x    frame=  252 fps=2.8 q=-0.0 size=    4220kB time=00:00:05.02 bitrate=6884.6kbits/s speed=0.056x    frame=  254 fps=2.8 q=-0.0 size=    4347kB time=00:00:05.06 bitrate=7036.6kbits/s speed=0.0561x    frame=  256 fps=2.8 q=-0.0 size=    4347kB time=00:00:05.10 bitrate=6981.4kbits/s speed=0.0561x    frame=  258 fps=2.8 q=-0.0 size=    4347kB time=00:00:05.14 bitrate=6927.1kbits/s speed=0.0561x    frame=  260 fps=2.8 q=-0.0 size=    4347kB time=00:00:05.18 bitrate=6873.6kbits/s speed=0.0561x    frame=  262 fps=2.8 q=-0.0 size=    4347kB time=00:00:05.22 bitrate=6820.9kbits/s speed=0.0561x    frame=  264 fps=2.8 q=-0.0 size=    4347kB time=00:00:05.26 bitrate=6769.1kbits/s speed=0.0561x    frame=  266 fps=2.8 q=-0.0 size=    4551kB time=00:00:05.30 bitrate=7032.4kbits/s speed=0.0562x    frame=  268 fps=2.8 q=-0.0 size=    4551kB time=00:00:05.34 bitrate=6979.7kbits/s speed=0.0563x    frame=  270 fps=2.8 q=-0.0 size=    4551kB time=00:00:05.38 bitrate=6927.8kbits/s speed=0.0563x    frame=  272 fps=2.8 q=-0.0 size=    4551kB time=00:00:05.42 bitrate=6876.7kbits/s speed=0.0563x    frame=  274 fps=2.8 q=-0.0 size=    4551kB time=00:00:05.46 bitrate=6826.3kbits/s speed=0.0563x    frame=  276 fps=2.8 q=-0.0 size=    4551kB time=00:00:05.50 bitrate=6776.7kbits/s speed=0.0563x    frame=  278 fps=2.8 q=-0.0 size=    4678kB time=00:00:05.54 bitrate=6916.0kbits/s speed=0.0564x    frame=  280 fps=2.8 q=-0.0 size=    4678kB time=00:00:05.58 bitrate=6866.4kbits/s speed=0.0564x    frame=  282 fps=2.8 q=-0.0 size=    4678kB time=00:00:05.62 bitrate=6817.6kbits/s speed=0.0564x    frame=  284 fps=2.8 q=-0.0 size=    4678kB time=00:00:05.66 bitrate=6769.4kbits/s speed=0.0564x    frame=  286 fps=2.8 q=-0.0 size=    4678kB time=00:00:05.70 bitrate=6721.9kbits/s speed=0.0564x    frame=  288 fps=2.8 q=-0.0 size=    4678kB time=00:00:05.74 bitrate=6675.1kbits/s speed=0.0564x    frame=  290 fps=2.8 q=-0.0 size=    4882kB time=00:00:05.78 bitrate=6918.4kbits/s speed=0.0565x    frame=  292 fps=2.8 q=-0.0 size=    4882kB time=00:00:05.82 bitrate=6870.8kbits/s speed=0.0565x    frame=  294 fps=2.8 q=-0.0 size=    4882kB time=00:00:05.86 bitrate=6823.9kbits/s speed=0.0565x    frame=  296 fps=2.8 q=-0.0 size=    4882kB time=00:00:05.90 bitrate=6777.7kbits/s speed=0.0565x    frame=  298 fps=2.8 q=-0.0 size=    4882kB time=00:00:05.94 bitrate=6732.0kbits/s speed=0.0565x    frame=  300 fps=2.8 q=-0.0 size=    4882kB time=00:00:05.98 bitrate=6687.0kbits/s speed=0.0564x    frame=  302 fps=2.8 q=-0.0 size=    5086kB time=00:00:06.02 bitrate=6919.5kbits/s speed=0.0565x    frame=  304 fps=2.8 q=-0.0 size=    5086kB time=00:00:06.06 bitrate=6873.8kbits/s speed=0.0565x    frame=  306 fps=2.8 q=-0.0 size=    5086kB time=00:00:06.10 bitrate=6828.8kbits/s speed=0.0565x    frame=  308 fps=2.8 q=-0.0 size=    5086kB time=00:00:06.14 bitrate=6784.3kbits/s speed=0.0565x    frame=  310 fps=2.8 q=-0.0 size=    5086kB time=00:00:06.18 bitrate=6740.4kbits/s speed=0.0565x    frame=  312 fps=2.8 q=-0.0 size=    5086kB time=00:00:06.22 bitrate=6697.0kbits/s speed=0.0565x    frame=  314 fps=2.8 q=-0.0 size=    5212kB time=00:00:06.26 bitrate=6818.9kbits/s speed=0.0566x    frame=  316 fps=2.8 q=-0.0 size=    5212kB time=00:00:06.30 bitrate=6775.6kbits/s speed=0.0566x    frame=  318 fps=2.8 q=-0.0 size=    5212kB time=00:00:06.34 bitrate=6732.8kbits/s speed=0.0566x    frame=  320 fps=2.8 q=-0.0 size=    5212kB time=00:00:06.38 bitrate=6690.6kbits/s speed=0.0566x    frame=  322 fps=2.8 q=-0.0 size=    5212kB time=00:00:06.42 bitrate=6648.9kbits/s speed=0.0566x    frame=  324 fps=2.8 q=-0.0 size=    5212kB time=00:00:06.46 bitrate=6607.8kbits/s speed=0.0566x    frame=  326 fps=2.8 q=-0.0 size=    5422kB time=00:00:06.50 bitrate=6831.8kbits/s speed=0.0567x    frame=  328 fps=2.8 q=-0.0 size=    5422kB time=00:00:06.54 bitrate=6790.1kbits/s speed=0.0567x    frame=  330 fps=2.8 q=-0.0 size=    5422kB time=00:00:06.58 bitrate=6748.8kbits/s speed=0.0567x    frame=  332 fps=2.8 q=-0.0 size=    5422kB time=00:00:06.62 bitrate=6708.0kbits/s speed=0.0567x    frame=  334 fps=2.8 q=-0.0 size=    5422kB time=00:00:06.66 bitrate=6667.7kbits/s speed=0.0567x    frame=  336 fps=2.8 q=-0.0 size=    5422kB time=00:00:06.70 bitrate=6627.9kbits/s speed=0.0567x    frame=  338 fps=2.8 q=-0.0 size=    5626kB time=00:00:06.74 bitrate=6836.7kbits/s speed=0.0567x    frame=  340 fps=2.8 q=-0.0 size=    5626kB time=00:00:06.78 bitrate=6796.4kbits/s speed=0.0568x    frame=  342 fps=2.8 q=-0.0 size=    5626kB time=00:00:06.82 bitrate=6756.5kbits/s speed=0.0568x    frame=  344 fps=2.8 q=-0.0 size=    5626kB time=00:00:06.86 bitrate=6717.1kbits/s speed=0.0568x    frame=  346 fps=2.8 q=-0.0 size=    5626kB time=00:00:06.90 bitrate=6678.2kbits/s speed=0.0568x    frame=  348 fps=2.8 q=-0.0 size=    5626kB time=00:00:06.94 bitrate=6639.7kbits/s speed=0.0568x    frame=  350 fps=2.8 q=-0.0 size=    5752kB time=00:00:06.98 bitrate=6749.9kbits/s speed=0.0568x    frame=  351 fps=2.8 q=-0.0 size=    5752kB time=00:00:07.00 bitrate=6730.6kbits/s speed=0.0567x    frame=  353 fps=2.8 q=-0.0 size=    5752kB time=00:00:07.04 bitrate=6692.4kbits/s speed=0.0567x    frame=  355 fps=2.8 q=-0.0 size=    5752kB time=00:00:07.08 bitrate=6654.6kbits/s speed=0.0567x    frame=  357 fps=2.8 q=-0.0 size=    5752kB time=00:00:07.12 bitrate=6617.2kbits/s speed=0.0567x    frame=  359 fps=2.8 q=-0.0 size=    5752kB time=00:00:07.16 bitrate=6580.2kbits/s speed=0.0567x    frame=  361 fps=2.8 q=-0.0 size=    5954kB time=00:00:07.20 bitrate=6773.2kbits/s speed=0.0567x    frame=  363 fps=2.8 q=-0.0 size=    5954kB time=00:00:07.24 bitrate=6735.8kbits/s speed=0.0568x    frame=  365 fps=2.8 q=-0.0 size=    5954kB time=00:00:07.28 bitrate=6698.8kbits/s speed=0.0568x    frame=  367 fps=2.8 q=-0.0 size=    5954kB time=00:00:07.32 bitrate=6662.2kbits/s speed=0.0568x    frame=  369 fps=2.8 q=-0.0 size=    5954kB time=00:00:07.36 bitrate=6626.0kbits/s speed=0.0568x    frame=  371 fps=2.8 q=-0.0 size=    5954kB time=00:00:07.40 bitrate=6590.2kbits/s speed=0.0568x    frame=  373 fps=2.8 q=-0.0 size=    6081kB time=00:00:07.44 bitrate=6694.4kbits/s speed=0.0568x    frame=  375 fps=2.8 q=-0.0 size=    6081kB time=00:00:07.48 bitrate=6658.6kbits/s speed=0.0568x    frame=  377 fps=2.8 q=-0.0 size=    6081kB time=00:00:07.52 bitrate=6623.2kbits/s speed=0.0568x    frame=  379 fps=2.8 q=-0.0 size=    6081kB time=00:00:07.56 bitrate=6588.2kbits/s speed=0.0568x    frame=  381 fps=2.8 q=-0.0 size=    6081kB time=00:00:07.60 bitrate=6553.5kbits/s speed=0.0568x    frame=  383 fps=2.8 q=-0.0 size=    6081kB time=00:00:07.64 bitrate=6519.2kbits/s speed=0.0568x    frame=  385 fps=2.8 q=-0.0 size=    6288kB time=00:00:07.68 bitrate=6706.7kbits/s speed=0.0568x    frame=  387 fps=2.9 q=-0.0 size=    6288kB time=00:00:07.72 bitrate=6671.9kbits/s speed=0.0569x    frame=  389 fps=2.9 q=-0.0 size=    6288kB time=00:00:07.76 bitrate=6637.5kbits/s speed=0.0569x    frame=  391 fps=2.9 q=-0.0 size=    6288kB time=00:00:07.80 bitrate=6603.5kbits/s speed=0.0569x    frame=  393 fps=2.9 q=-0.0 size=    6288kB time=00:00:07.84 bitrate=6569.8kbits/s speed=0.0569x    frame=  395 fps=2.9 q=-0.0 size=    6288kB time=00:00:07.88 bitrate=6536.5kbits/s speed=0.0569x    frame=  397 fps=2.8 q=-0.0 size=    6500kB time=00:00:07.92 bitrate=6722.2kbits/s speed=0.0569x    frame=  399 fps=2.9 q=-0.0 size=    6500kB time=00:00:07.96 bitrate=6688.4kbits/s speed=0.0569x    frame=  401 fps=2.9 q=-0.0 size=    6500kB time=00:00:08.00 bitrate=6655.0kbits/s speed=0.0569x    frame=  403 fps=2.9 q=-0.0 size=    6500kB time=00:00:08.04 bitrate=6621.9kbits/s speed=0.0569x    frame=  405 fps=2.9 q=-0.0 size=    6500kB time=00:00:08.08 bitrate=6589.1kbits/s speed=0.0569x    frame=  407 fps=2.9 q=-0.0 size=    6500kB time=00:00:08.12 bitrate=6556.7kbits/s speed=0.0569x    frame=  408 fps=2.8 q=-0.0 size=    6500kB time=00:00:08.14 bitrate=6540.6kbits/s speed=0.0567x    frame=  410 fps=2.8 q=-0.0 size=    6622kB time=00:00:08.18 bitrate=6631.3kbits/s speed=0.0568x    frame=  412 fps=2.8 q=-0.0 size=    6622kB time=00:00:08.22 bitrate=6599.1kbits/s speed=0.0568x    frame=  414 fps=2.8 q=-0.0 size=    6622kB time=00:00:08.26 bitrate=6567.1kbits/s speed=0.0568x    frame=  416 fps=2.8 q=-0.0 size=    6622kB time=00:00:08.30 bitrate=6535.5kbits/s speed=0.0568x    frame=  418 fps=2.8 q=-0.0 size=    6622kB time=00:00:08.34 bitrate=6504.1kbits/s speed=0.0568x    frame=  420 fps=2.8 q=-0.0 size=    6622kB time=00:00:08.38 bitrate=6473.1kbits/s speed=0.0568x    frame=  421 fps=2.8 q=-0.0 size=    6826kB time=00:00:08.40 bitrate=6656.6kbits/s speed=0.0566x    frame=  423 fps=2.8 q=-0.0 size=    6826kB time=00:00:08.44 bitrate=6625.1kbits/s speed=0.0567x    frame=  425 fps=2.8 q=-0.0 size=    6826kB time=00:00:08.48 bitrate=6593.8kbits/s speed=0.0567x    frame=  427 fps=2.8 q=-0.0 size=    6826kB time=00:00:08.52 bitrate=6562.9kbits/s speed=0.0567x    frame=  429 fps=2.8 q=-0.0 size=    6826kB time=00:00:08.56 bitrate=6532.2kbits/s speed=0.0567x    frame=  431 fps=2.8 q=-0.0 size=    6826kB time=00:00:08.60 bitrate=6501.8kbits/s speed=0.0567x    frame=  433 fps=2.8 q=-0.0 size=    7032kB time=00:00:08.64 bitrate=6666.3kbits/s speed=0.0567x    frame=  435 fps=2.8 q=-0.0 size=    7032kB time=00:00:08.68 bitrate=6635.5kbits/s speed=0.0567x    frame=  437 fps=2.8 q=-0.0 size=    7032kB time=00:00:08.72 bitrate=6605.1kbits/s speed=0.0567x    frame=  439 fps=2.8 q=-0.0 size=    7032kB time=00:00:08.76 bitrate=6574.9kbits/s speed=0.0567x    frame=  441 fps=2.8 q=-0.0 size=    7032kB time=00:00:08.80 bitrate=6545.1kbits/s speed=0.0567x    frame=  443 fps=2.8 q=-0.0 size=    7032kB time=00:00:08.84 bitrate=6515.5kbits/s speed=0.0567x    frame=  445 fps=2.8 q=-0.0 size=    7152kB time=00:00:08.88 bitrate=6597.3kbits/s speed=0.0567x    frame=  447 fps=2.8 q=-0.0 size=    7152kB time=00:00:08.92 bitrate=6567.8kbits/s speed=0.0568x    frame=  449 fps=2.8 q=-0.0 size=    7152kB time=00:00:08.96 bitrate=6538.4kbits/s speed=0.0568x    frame=  451 fps=2.8 q=-0.0 size=    7152kB time=00:00:09.00 bitrate=6509.4kbits/s speed=0.0567x    frame=  453 fps=2.8 q=-0.0 size=    7152kB time=00:00:09.04 bitrate=6480.6kbits/s speed=0.0567x    frame=  455 fps=2.8 q=-0.0 size=    7152kB time=00:00:09.08 bitrate=6452.0kbits/s speed=0.0567x    frame=  457 fps=2.8 q=-0.0 size=    7365kB time=00:00:09.12 bitrate=6615.0kbits/s speed=0.0567x    frame=  459 fps=2.8 q=-0.0 size=    7365kB time=00:00:09.16 bitrate=6586.1kbits/s speed=0.0568x    frame=  461 fps=2.8 q=-0.0 size=    7365kB time=00:00:09.20 bitrate=6557.4kbits/s speed=0.0568x    frame=  463 fps=2.8 q=-0.0 size=    7365kB time=00:00:09.24 bitrate=6529.1kbits/s speed=0.0568x    frame=  465 fps=2.8 q=-0.0 size=    7365kB time=00:00:09.28 bitrate=6500.9kbits/s speed=0.0568x    frame=  467 fps=2.8 q=-0.0 size=    7365kB time=00:00:09.32 bitrate=6473.0kbits/s speed=0.0568x    frame=  469 fps=2.8 q=-0.0 size=    7487kB time=00:00:09.36 bitrate=6552.0kbits/s speed=0.0567x    frame=  471 fps=2.8 q=-0.0 size=    7487kB time=00:00:09.40 bitrate=6524.1kbits/s speed=0.0568x    frame=  473 fps=2.8 q=-0.0 size=    7487kB time=00:00:09.44 bitrate=6496.5kbits/s speed=0.0568x    frame=  475 fps=2.8 q=-0.0 size=    7487kB time=00:00:09.48 bitrate=6469.1kbits/s speed=0.0568x    frame=  477 fps=2.8 q=-0.0 size=    7487kB time=00:00:09.52 bitrate=6441.9kbits/s speed=0.0568x    frame=  479 fps=2.8 q=-0.0 size=    7487kB time=00:00:09.56 bitrate=6415.0kbits/s speed=0.0568x    frame=  481 fps=2.8 q=-0.0 size=    7698kB time=00:00:09.60 bitrate=6568.2kbits/s speed=0.0568x    frame=  483 fps=2.8 q=-0.0 size=    7698kB time=00:00:09.64 bitrate=6540.9kbits/s speed=0.0569x    frame=  485 fps=2.8 q=-0.0 size=    7698kB time=00:00:09.68 bitrate=6513.9kbits/s speed=0.0569x    frame=  487 fps=2.8 q=-0.0 size=    7698kB time=00:00:09.72 bitrate=6487.1kbits/s speed=0.0569x    frame=  489 fps=2.8 q=-0.0 size=    7698kB time=00:00:09.76 bitrate=6460.5kbits/s speed=0.0569x    frame=  491 fps=2.8 q=-0.0 size=    7698kB time=00:00:09.80 bitrate=6434.2kbits/s speed=0.0568x    frame=  493 fps=2.8 q=-0.0 size=    7900kB time=00:00:09.84 bitrate=6576.0kbits/s speed=0.0568x    frame=  495 fps=2.8 q=-0.0 size=    7900kB time=00:00:09.88 bitrate=6549.4kbits/s speed=0.0568x    frame=  497 fps=2.8 q=-0.0 size=    7900kB time=00:00:09.92 bitrate=6523.0kbits/s speed=0.0568x    frame=  499 fps=2.8 q=-0.0 size=    7900kB time=00:00:09.96 bitrate=6496.8kbits/s speed=0.0568x    frame=  500 fps=2.8 q=-0.0 size=    7900kB time=00:00:09.98 bitrate=6483.8kbits/s speed=0.0567x    frame=  500 fps=2.8 q=-0.0 Lsize=    8025kB time=00:00:09.98 bitrate=6586.7kbits/s speed=0.0567x    
video:8016kB audio:0kB subtitle:0kB other streams:0kB global headers:3kB muxing overhead: 0.108396%
bench: utime=156.536s
bench: maxrss=227124kB
